<?xml version="1.0" encoding="UTF-8"?><svg id="Layer_2" xmlns="http://www.w3.org/2000/svg" viewBox="0 0 25.14 25.18"><defs><style>.cls-1{fill-rule:evenodd;}.cls-1,.cls-2{stroke-width:0px;}</style></defs><g id="Layer_1-2"><path class="cls-2" d="M17.81,10.12v7.13h-1.82v-7.13h1.82ZM15.89,8.13c0-.56.41-.98,1.01-.98s1,.42,1.01.98c0,.54-.4.97-1.03.97s-1-.42-1-.97Z"/><path class="cls-1" d="M13.42,17.25l-.89-2.8h-3.13l-.85,2.8h-1.86l3.16-9.87h2.3l3.21,9.87h-1.93ZM10.44,10.66l-.76,2.43h2.53l-.78-2.43c-.15-.49-.29-1.02-.41-1.51-.03-.11-.06-.22-.09-.34h-.03c-.05.2-.1.4-.15.62-.1.41-.2.84-.32,1.23Z"/><path class="cls-1" d="M19.57.39C14.92-.13,10.22-.13,5.57.39,2.89.69.73,2.8.41,5.49-.14,10.21-.14,14.98.41,19.7c.31,2.69,2.48,4.8,5.16,5.1,4.65.52,9.35.52,14,0,2.68-.3,4.84-2.41,5.16-5.1.55-4.72.55-9.49,0-14.21-.31-2.69-2.48-4.8-5.16-5.1ZM5.79,2.37c4.51-.5,9.05-.5,13.56,0,1.77.2,3.19,1.6,3.4,3.35.53,4.56.53,9.18,0,13.74-.11.86-.5,1.66-1.12,2.26-.62.61-1.42.99-2.28,1.09-4.51.5-9.05.5-13.56,0-.86-.1-1.66-.48-2.28-1.09-.62-.61-1.01-1.41-1.12-2.26-.53-4.56-.53-9.18,0-13.74.11-.86.5-1.66,1.12-2.26.62-.61,1.42-.99,2.28-1.09Z"/></g></svg>