<?xml version="1.0" encoding="UTF-8"?><svg id="Layer_2" xmlns="http://www.w3.org/2000/svg" viewBox="0 0 25.97 25.22"><defs><style>.cls-1{fill-rule:evenodd;}.cls-1,.cls-2{stroke-width:0px;}</style></defs><g id="Layer_1-2"><path class="cls-1" d="M8.99,17.28h-1.85V7.52c.67-.12,1.59-.21,2.84-.21,1.36,0,2.36.28,3.01.81.6.48,1,1.26,1,2.18s-.3,1.72-.88,2.24c-.74.72-1.91,1.06-3.22,1.06-.35,0-.67-.01-.91-.06v3.73ZM10.06,8.7c-.51,0-.88.04-1.07.09v3.34c.23.06.53.07.91.07,1.39,0,2.24-.66,2.24-1.82s-.79-1.69-2.07-1.69Z"/><path class="cls-2" d="M16.37,17.44c-.89,0-1.69-.22-2.24-.51l.36-1.31c.42.25,1.22.51,1.89.51.82,0,1.18-.32,1.18-.79s-.3-.73-1.21-1.04c-1.44-.48-2.04-1.25-2.03-2.08,0-1.26,1.07-2.24,2.78-2.24.82,0,1.53.2,1.95.42l-.36,1.28c-.48-.26-1.01-.4-1.56-.41-.67,0-1.03.31-1.03.75s.35.68,1.29,1c1.33.47,1.95,1.13,1.97,2.18,0,1.29-1.05,2.24-2.99,2.24Z"/><path class="cls-1" d="M20.21.39C15.41-.13,10.56-.13,5.75.39,2.99.69.75,2.8.43,5.5-.14,10.22-.14,15,.43,19.72c.32,2.7,2.56,4.81,5.33,5.11,4.81.52,9.65.52,14.46,0,2.77-.3,5-2.41,5.33-5.11.57-4.73.57-9.5,0-14.23-.32-2.7-2.56-4.81-5.33-5.11ZM5.98,2.37c4.65-.5,9.35-.5,14,0,1.83.2,3.29,1.6,3.51,3.36.55,4.57.55,9.19,0,13.76-.11.86-.52,1.66-1.15,2.27-.64.61-1.47.99-2.35,1.09-4.65.5-9.35.5-14,0-.89-.1-1.72-.48-2.35-1.09-.64-.61-1.04-1.41-1.15-2.27-.55-4.57-.55-9.19,0-13.76.11-.86.52-1.66,1.15-2.27.64-.61,1.47-.99,2.35-1.09Z"/></g></svg>