<?xml version="1.0" encoding="UTF-8"?><svg id="Layer_2" xmlns="http://www.w3.org/2000/svg" viewBox="0 0 25.28 24.55"><defs><style>.cls-1{fill-rule:evenodd;}.cls-1,.cls-2{stroke-width:0px;}</style></defs><g id="Layer_1-2"><path class="cls-2" d="M9.72,8.36c-.51,0-.88.04-1.07.09v3.34c.23.06.53.07.91.07,1.39,0,2.24-.66,2.24-1.82s-.79-1.69-2.07-1.69Z"/><path class="cls-1" d="M5.45.38C10.23-.13,15.05-.13,19.83.38c2.61.28,4.72,2.28,5.02,4.82.57,4.7.57,9.45,0,14.15-.31,2.54-2.41,4.54-5.02,4.82-4.78.51-9.6.51-14.38,0-2.61-.28-4.72-2.28-5.02-4.82C-.14,14.65-.14,9.9.43,5.2.73,2.66,2.84.67,5.45.38ZM8.64,16.94h-1.85V7.19c.67-.12,1.59-.21,2.84-.21,1.36,0,2.36.28,3.01.81.6.48,1,1.26,1,2.18s-.3,1.72-.88,2.24c-.74.72-1.91,1.06-3.22,1.06-.35,0-.67-.01-.91-.06v3.73ZM16.03,17.1c-.89,0-1.69-.22-2.24-.51l.36-1.31c.42.25,1.22.51,1.89.51.82,0,1.18-.32,1.18-.79s-.3-.73-1.21-1.04c-1.44-.48-2.04-1.25-2.03-2.08,0-1.26,1.07-2.24,2.78-2.24.82,0,1.53.2,1.95.42l-.36,1.28c-.48-.26-1.01-.4-1.56-.41-.67,0-1.03.31-1.03.75s.35.68,1.29,1c1.33.47,1.95,1.13,1.97,2.18,0,1.29-1.04,2.24-2.99,2.24Z"/></g></svg>