<?xml version="1.0" encoding="UTF-8"?><svg id="Layer_2" xmlns="http://www.w3.org/2000/svg" viewBox="0 0 15.33 22"><defs><style>.cls-1,.cls-2{fill:#fff;}.cls-1,.cls-3{stroke:#000;stroke-width:2px;}.cls-2{stroke-width:0px;}.cls-3{fill:none;}</style></defs><g id="Layer_1-2"><path class="cls-2" d="M7.67,1h-3.33c-.88,0-1.73.35-2.36.98-.62.63-.98,1.47-.98,2.36s.35,1.73.98,2.36c.62.62,1.47.98,2.36.98h3.33V1ZM7.67,7.67h-3.33c-.88,0-1.73.35-2.36.98s-.98,1.47-.98,2.36.35,1.73.98,2.36,1.47.98,2.36.98h3.33v-6.67Z"/><path class="cls-3" d="M4.33,7.67c-.88,0-1.73-.35-2.36-.98-.62-.63-.98-1.47-.98-2.36s.35-1.73.98-2.36c.62-.62,1.47-.98,2.36-.98h3.33v6.67M4.33,7.67h3.33M4.33,7.67c-.88,0-1.73.35-2.36.98s-.98,1.47-.98,2.36.35,1.73.98,2.36,1.47.98,2.36.98h3.33v-6.67"/><path class="cls-1" d="M14.33,11c0,.88-.35,1.73-.98,2.36-.63.62-1.47.98-2.36.98s-1.73-.35-2.36-.98-.98-1.47-.98-2.36.35-1.73.98-2.36,1.47-.98,2.36-.98,1.73.35,2.36.98c.62.62.98,1.47.98,2.36ZM4.33,14.33h3.33v3.33c0,.66-.2,1.3-.56,1.85-.37.55-.89.97-1.5,1.23-.61.25-1.28.32-1.93.19-.65-.13-1.24-.45-1.71-.91-.47-.47-.78-1.06-.91-1.71-.13-.65-.06-1.32.19-1.93.25-.61.68-1.13,1.23-1.49.55-.37,1.19-.56,1.85-.56Z"/><path class="cls-1" d="M7.67,1h3.33c.88,0,1.73.35,2.36.98.62.63.98,1.47.98,2.36s-.35,1.73-.98,2.36c-.62.62-1.47.98-2.36.98h-3.33V1Z"/></g></svg>