<?xml version="1.0" encoding="UTF-8"?><svg id="Layer_2" xmlns="http://www.w3.org/2000/svg" viewBox="0 0 24.74 21.7"><defs><style>.cls-1{stroke-width:0px;}</style></defs><g id="Layer_1-2"><path class="cls-1" d="M0,3.92C0,2.88.42,1.88,1.18,1.15c.75-.74,1.78-1.15,2.84-1.15h16.7c.53,0,1.05.1,1.54.3.49.2.93.49,1.3.85.37.36.67.79.87,1.27.2.47.31.99.31,1.5v13.87c0,.51-.1,1.02-.31,1.5-.2.48-.5.91-.87,1.27-.37.36-.82.65-1.3.85-.49.2-1.01.3-1.54.3H4.02c-1.07,0-2.09-.41-2.84-1.15s-1.18-1.73-1.18-2.77V3.92ZM4.02,1.81c-.57,0-1.12.22-1.53.62-.41.4-.63.93-.63,1.49v13.87c0,1.16.97,2.11,2.17,2.11h16.7c.57,0,1.12-.22,1.53-.62.41-.4.63-.93.63-1.49V3.92c0-.56-.23-1.1-.63-1.49-.41-.4-.96-.62-1.53-.62H4.02ZM8.66,7.54v6.63c0,.21.06.41.16.6.11.18.26.33.44.44.18.11.4.16.61.17.21,0,.43-.05.62-.15l6.18-3.32c.19-.1.35-.26.47-.44.11-.19.17-.4.17-.61s-.06-.43-.17-.61c-.11-.19-.27-.34-.47-.44l-6.18-3.32c-.19-.1-.4-.15-.62-.15-.21,0-.43.06-.61.17-.18.11-.34.26-.44.44-.11.18-.16.39-.16.6"/></g></svg>