<?xml version="1.0" encoding="UTF-8"?><svg id="Layer_2" xmlns="http://www.w3.org/2000/svg" viewBox="0 0 25.97 26.01"><defs><style>.cls-1{fill-rule:evenodd;stroke-width:0px;}</style></defs><g id="Layer_1-2"><path class="cls-1" d="M11.95,17.82l-.92-2.89h-3.24l-.88,2.89h-1.92l3.27-10.2h2.37l3.31,10.2h-2ZM8.88,11.01l-.79,2.51h2.62l-.8-2.51c-.16-.51-.3-1.03-.43-1.56-.03-.12-.06-.23-.09-.35h-.03l-.16.64c-.1.43-.21.87-.33,1.27ZM20.8,13.87c0,.35-.03.62-.06.79h-4.93c.05,1.33,1.09,1.91,2.27,1.91.86,0,1.48-.12,2.04-.33l.27,1.29c-.64.26-1.51.47-2.57.47-2.39,0-3.8-1.48-3.8-3.74,0-2.04,1.24-3.96,3.6-3.96s3.18,1.97,3.18,3.59ZM17.52,11.55c-1.15,0-1.63,1.04-1.71,1.8h3.24c.01-.68-.29-1.8-1.53-1.8Z"/><path class="cls-1" d="M20.21.4C15.41-.13,10.56-.13,5.75.4,2.99.71.75,2.89.43,5.67-.14,10.54-.14,15.47.43,20.34c.32,2.78,2.56,4.96,5.33,5.27,4.81.53,9.65.53,14.46,0,2.77-.31,5-2.49,5.33-5.27.57-4.87.57-9.8,0-14.67-.32-2.78-2.56-4.96-5.33-5.27ZM5.98,2.45c4.65-.52,9.35-.52,14,0,1.83.21,3.29,1.65,3.51,3.46.55,4.71.55,9.48,0,14.19-.11.89-.52,1.71-1.15,2.34-.64.63-1.47,1.02-2.35,1.12-4.65.52-9.35.52-14,0-.89-.1-1.72-.49-2.35-1.12-.64-.63-1.04-1.45-1.15-2.34-.55-4.71-.55-9.48,0-14.19.11-.89.52-1.71,1.15-2.34.64-.63,1.47-1.02,2.35-1.12Z"/></g></svg>