<?xml version="1.0" encoding="UTF-8"?><svg id="Layer_2" xmlns="http://www.w3.org/2000/svg" viewBox="0 0 92.06 26"><defs><style>.cls-1{fill-rule:evenodd;}.cls-1,.cls-2{stroke-width:0px;}</style></defs><g id="Layer_1-2"><path class="cls-2" d="M66.19,6.33h1.09v11.01h5.31v.89h-6.4V6.33h0Z"/><path class="cls-1" d="M33.05,6.33h-3.36v11.9h3.36c3.69,0,5.18-2.77,5.18-5.95s-1.48-5.95-5.18-5.95ZM33.08,17.34h-2.31V7.22h2.31c2.64,0,4.06,1.85,4.06,5.06s-1.42,5.06-4.06,5.06Z"/><path class="cls-2" d="M40.18,18.23V6.33h6.79v.89h-5.7v4.39h4.1v.89h-4.1v4.85h6.02v.89h-7.11Z"/><path class="cls-2" d="M47.34,6.33h1.15l3.23,10.35h.03l3.33-10.35h1.15l-3.96,11.9h-1.09l-3.86-11.9h0Z"/><path class="cls-2" d="M57.52,18.23V6.33h6.79v.89h-5.7v4.39h4.1v.89h-4.1v4.85h6.02v.89h-7.11Z"/><path class="cls-1" d="M77.78,18.4c2.98,0,4.7-2.61,4.7-6.12s-1.71-6.12-4.7-6.12-4.7,2.6-4.7,6.12,1.72,6.12,4.7,6.12ZM77.78,7.06c2.19,0,3.61,1.88,3.61,5.23s-1.42,5.23-3.61,5.23c-2.19,0-3.61-1.88-3.61-5.23s1.42-5.23,3.61-5.23Z"/><path class="cls-1" d="M84.44,6.33v11.9h1.09v-5.28h2.51c2.84,0,4.02-1.32,4.02-3.31s-1.19-3.31-4.02-3.31h-3.59ZM88.03,12.07h-2.51v-4.85h2.51c2.06,0,2.94.86,2.94,2.42s-.87,2.42-2.94,2.42Z"/><path class="cls-2" d="M25.44,20.42c-1.48,1.03-3.67,1.61-7.38,1.61-6.4,0-11.08-2.3-12.99-6.76-.9-2.11-.82-4.5-.82-7.73H0C0,10.95-.06,13.62.85,16.08c2.39,6.45,8.54,9.92,16.81,9.92s11.32-2.28,13.48-5.58h-5.7Z"/><path class="cls-2" d="M17.23,18.91c-2.44,0-4.79-.66-6.87-2.1-1.45-1-3.12-3.26-3.12-7.1C7.24,2.6,10.87,0,18.18,0h13.15l1.27,4.05h-13.42c-4.82,0-7.69.38-7.69,5.66,0,1.75.49,2.99,1.51,3.8,1.71,1.37,5.04,1.43,7.07,1.23,0,0,.83-2.68.97-3.12.16-.51.09-.63-.41-.63h-3.41c-.97,0-1.92-.49-1.92-1.66s.89-1.79,2.1-1.79h7.25c1.06,0,2.15.15,1.59,1.84l-2.93,8.89s-2.39.65-6.07.65Z"/><path class="cls-2" d="M.85,16.08c2.39,6.45,8.54,9.92,16.81,9.92s11.32-2.28,13.48-5.58h-5.7c-1.48,1.03-3.67,1.61-7.38,1.61-6.4,0-11.08-2.3-12.99-6.76-.47-1.09-.67-2.25-.75-3.57H.06c.08,1.59.29,3.02.8,4.38Z"/></g></svg>